<svg xmlns="http://www.w3.org/2000/svg" width="860" height="950" viewBox="0 0 860 950">
  <text x="20" y="30" font-size="20" font-weight="650" fill="#172033">📚 学习历程时间线</text>
  <text x="20" y="50" font-size="13" fill="#5b6475">纵轴 = 时间 · 横轴 = 学习板块（往下越长，往后越全）</text>

  <!-- 列：日期(0~60) | JavaSE(70~340,宽270,中心205) | JavaWeb(350~620,宽270,中心485) | Redis(630~860,宽230,中心745) -->
  <!-- 行高44，首行y=82 -->

  <line x1="60" y1="62" x2="60" y2="920" stroke="#cbd5e1" stroke-width="1"/>
  <line x1="340" y1="62" x2="340" y2="920" stroke="#cbd5e1" stroke-width="1"/>
  <line x1="620" y1="62" x2="620" y2="920" stroke="#cbd5e1" stroke-width="1"/>
  <line x1="860" y1="62" x2="860" y2="920" stroke="#cbd5e1" stroke-width="1"/>

  <!-- 板块标签 -->
  <rect x="70" y="62" width="270" height="20" fill="#3b82f6" opacity="0.15" rx="3"/>
  <text x="205" y="76" font-size="12" font-weight="600" fill="#1d4ed8" text-anchor="middle">JavaSE</text>
  <rect x="350" y="62" width="270" height="20" fill="#10b981" opacity="0.15" rx="3"/>
  <text x="485" y="76" font-size="12" font-weight="600" fill="#047857" text-anchor="middle">JavaWeb</text>
  <rect x="630" y="62" width="230" height="20" fill="#f59e0b" opacity="0.15" rx="3"/>
  <text x="745" y="76" font-size="12" font-weight="600" fill="#b45309" text-anchor="middle">Redis</text>

  <!-- ===== Row 0: y=82, h=44 ===== -->
  <line x1="60" y1="126" x2="860" y2="126" stroke="#f1f5f9" stroke-width="1"/>
  <text x="30" y="109" font-size="12" font-weight="600" fill="#172033" text-anchor="middle">7/5</text>
  <text x="30" y="122" font-size="9" fill="#94a3b8" text-anchor="middle">周日</text>
  <rect x="632" y="84" width="226" height="40" rx="5" fill="#f59e0b" opacity="0.85"/>
  <text x="745" y="108" font-size="11" fill="#ffffff" font-weight="600" text-anchor="middle">Redis 基础入门</text>

  <!-- Row 1: y=126 -->
  <text x="30" y="153" font-size="12" fill="#94a3b8" text-anchor="middle">7/6</text>
  <text x="30" y="166" font-size="9" fill="#94a3b8" text-anchor="middle">周一</text>
  <line x1="60" y1="170" x2="860" y2="170" stroke="#f1f5f9" stroke-width="1"/>

  <!-- Row 2: y=170 -->
  <line x1="60" y1="214" x2="860" y2="214" stroke="#f1f5f9" stroke-width="1"/>
  <text x="30" y="197" font-size="12" font-weight="600" fill="#172033" text-anchor="middle">7/7</text>
  <text x="30" y="210" font-size="9" fill="#94a3b8" text-anchor="middle">周二</text>
  <rect x="632" y="172" width="226" height="40" rx="5" fill="#f59e0b" opacity="0.85"/>
  <text x="745" y="196" font-size="11" fill="#ffffff" font-weight="600" text-anchor="middle">优惠券秒杀 · 分布式锁</text>

  <!-- Row 3: y=214 -->
  <line x1="60" y1="258" x2="860" y2="258" stroke="#f1f5f9" stroke-width="1"/>
  <text x="30" y="241" font-size="12" font-weight="600" fill="#172033" text-anchor="middle">7/8</text>
  <text x="30" y="254" font-size="9" fill="#94a3b8" text-anchor="middle">周三</text>
  <rect x="632" y="216" width="226" height="40" rx="5" fill="#f59e0b" opacity="0.85"/>
  <text x="745" y="240" font-size="11" fill="#ffffff" font-weight="600" text-anchor="middle">秒杀优化 · 消息队列</text>

  <!-- Row 4: y=258 — 大满贯 -->
  <line x1="60" y1="302" x2="860" y2="302" stroke="#f1f5f9" stroke-width="1"/>
  <text x="30" y="285" font-size="12" font-weight="600" fill="#172033" text-anchor="middle">7/9</text>
  <text x="30" y="298" font-size="9" fill="#94a3b8" text-anchor="middle">周四</text>
  <rect x="72" y="260" width="266" height="40" rx="5" fill="#3b82f6" opacity="0.85"/>
  <text x="205" y="284" font-size="11" fill="#ffffff" text-anchor="middle">JavaSE 入门六篇</text>
  <rect x="352" y="260" width="266" height="40" rx="5" fill="#10b981" opacity="0.85"/>
  <text x="485" y="284" font-size="11" fill="#ffffff" text-anchor="middle">JavaWeb 全套 15 篇</text>
  <rect x="632" y="260" width="226" height="40" rx="5" fill="#f59e0b" opacity="0.85"/>
  <text x="745" y="284" font-size="11" fill="#ffffff" text-anchor="middle">达人探店</text>

  <!-- Row 5-10: 7/10-7/15 休息 -->
  <rect x="70" y="306" width="790" height="248" fill="#fef3c7" opacity="0.25" rx="4"/>
  <text x="485" y="435" font-size="14" fill="#d97706" font-weight="600" text-anchor="middle">7/10 — 7/15 休息 6 天</text>
  <text x="30" y="333" font-size="12" fill="#94a3b8" text-anchor="middle">7/10</text>
  <text x="30" y="346" font-size="9" fill="#94a3b8" text-anchor="middle">周五</text>
  <text x="30" y="377" font-size="12" fill="#cbd5e1" text-anchor="middle">7/11</text>
  <text x="30" y="390" font-size="9" fill="#cbd5e1" text-anchor="middle">六</text>
  <text x="30" y="421" font-size="12" fill="#cbd5e1" text-anchor="middle">7/12</text>
  <text x="30" y="434" font-size="9" fill="#cbd5e1" text-anchor="middle">日</text>
  <text x="30" y="465" font-size="12" fill="#cbd5e1" text-anchor="middle">7/13</text>
  <text x="30" y="478" font-size="9" fill="#cbd5e1" text-anchor="middle">一</text>
  <text x="30" y="509" font-size="12" fill="#cbd5e1" text-anchor="middle">7/14</text>
  <text x="30" y="522" font-size="9" fill="#cbd5e1" text-anchor="middle">二</text>
  <text x="30" y="553" font-size="12" fill="#cbd5e1" text-anchor="middle">7/15</text>
  <text x="30" y="566" font-size="9" fill="#cbd5e1" text-anchor="middle">三</text>

  <!-- Row 11: y=554 -->
  <line x1="60" y1="598" x2="860" y2="598" stroke="#f1f5f9" stroke-width="1"/>
  <text x="30" y="581" font-size="12" font-weight="600" fill="#172033" text-anchor="middle">7/16</text>
  <text x="30" y="594" font-size="9" fill="#94a3b8" text-anchor="middle">周五</text>
  <rect x="72" y="556" width="266" height="40" rx="5" fill="#3b82f6" opacity="0.85"/>
  <text x="205" y="580" font-size="11" fill="#ffffff" font-weight="600" text-anchor="middle">面向对象 · String · 常用API</text>

  <!-- Row 12: y=598 休息 -->
  <text x="30" y="625" font-size="12" fill="#94a3b8" text-anchor="middle">7/17</text>
  <text x="30" y="638" font-size="9" fill="#94a3b8" text-anchor="middle">六</text>
  <text x="205" y="632" font-size="11" fill="#d97706" font-weight="600" text-anchor="middle">⬇ 7/17-7/18 休息</text>

  <!-- Row 13: y=642 休息 -->
  <text x="30" y="669" font-size="12" fill="#cbd5e1" text-anchor="middle">7/18</text>
  <text x="30" y="682" font-size="9" fill="#cbd5e1" text-anchor="middle">日</text>

  <!-- Row 14: y=686 -->
  <line x1="60" y1="730" x2="860" y2="730" stroke="#f1f5f9" stroke-width="1"/>
  <text x="30" y="713" font-size="12" font-weight="600" fill="#172033" text-anchor="middle">7/19</text>
  <text x="30" y="726" font-size="9" fill="#94a3b8" text-anchor="middle">周一</text>
  <rect x="72" y="688" width="266" height="40" rx="5" fill="#3b82f6" opacity="0.75"/>
  <text x="205" y="712" font-size="11" fill="#ffffff" font-weight="600" text-anchor="middle">克隆 · 正则 · 日期类</text>

  <!-- Row 15: y=730 -->
  <line x1="60" y1="774" x2="860" y2="774" stroke="#f1f5f9" stroke-width="1"/>
  <text x="30" y="757" font-size="12" font-weight="600" fill="#172033" text-anchor="middle">7/20</text>
  <text x="30" y="770" font-size="9" fill="#94a3b8" text-anchor="middle">周二</text>
  <rect x="72" y="732" width="266" height="40" rx="5" fill="#3b82f6" opacity="0.8"/>
  <text x="205" y="756" font-size="11" fill="#ffffff" font-weight="600" text-anchor="middle">集合框架 · List · 泛型</text>

  <!-- Row 16: y=774 -->
  <line x1="60" y1="818" x2="860" y2="818" stroke="#f1f5f9" stroke-width="1"/>
  <text x="30" y="801" font-size="12" font-weight="600" fill="#172033" text-anchor="middle">7/21</text>
  <text x="30" y="814" font-size="9" fill="#94a3b8" text-anchor="middle">周三</text>
  <rect x="72" y="776" width="266" height="40" rx="5" fill="#3b82f6" opacity="0.85"/>
  <text x="205" y="800" font-size="11" fill="#ffffff" font-weight="600" text-anchor="middle">ArrayList/LinkedList 源码</text>

  <!-- Row 17: y=818 -->
  <line x1="60" y1="862" x2="860" y2="862" stroke="#f1f5f9" stroke-width="1"/>
  <text x="30" y="845" font-size="12" font-weight="600" fill="#172033" text-anchor="middle">7/22</text>
  <text x="30" y="858" font-size="9" fill="#94a3b8" text-anchor="middle">周四</text>
  <rect x="72" y="820" width="266" height="40" rx="5" fill="#3b82f6" opacity="0.95"/>
  <text x="205" y="844" font-size="11" fill="#ffffff" font-weight="600" text-anchor="middle">数据结构 · Set 集合 🎉</text>

  <!-- 底部进度 -->
  <text x="30" y="903" font-size="12" fill="#5b6475" text-anchor="middle">进度</text>
  <rect x="80" y="892" width="10" height="10" rx="2" fill="#3b82f6" opacity="0.85"/>
  <text x="95" y="902" font-size="11" fill="#172033">JavaSE 上部 ✅</text>
  <rect x="185" y="892" width="10" height="10" rx="2" fill="#10b981" opacity="0.85"/>
  <text x="200" y="902" font-size="11" fill="#172033">JavaWeb ✅</text>
  <rect x="280" y="892" width="10" height="10" rx="2" fill="#f59e0b" opacity="0.85"/>
  <text x="295" y="902" font-size="11" fill="#172033">Redis ✅</text>
  <text x="485" y="903" font-size="11" fill="#5b6475" text-anchor="middle">进行中：JavaSE 下部（进阶）</text>
</svg>
